<svg id="icon--icon-lang" viewBox="0 0 16 16" xmlns="http://www.w3.org/2000/svg">
<g clip-path="url(#clip0_109_1759)">
<path d="M16 8.00008V7.99608C16 5.62875 14.9693 3.50275 13.3327 2.04075L13.3247 2.03408C13.3045 2.01229 13.2819 1.99284 13.2573 1.97608L13.256 1.97541C11.8024 0.699101 9.93307 -0.00302204 7.99867 0.000747522C5.97734 0.000747522 4.132 0.751414 2.72534 1.99008L2.734 1.98275C2.71705 1.99561 2.70142 2.01012 2.68734 2.02608V2.02675C1.84169 2.77554 1.1648 3.69548 0.701507 4.72561C0.238217 5.75574 -0.000897926 6.87256 2.53378e-06 8.00208C2.53378e-06 10.3687 1.02934 12.4947 2.66467 13.9574L2.67267 13.9641C2.69385 13.9881 2.71754 14.0098 2.74334 14.0287L2.74467 14.0294C4.19789 15.3038 6.06579 16.0049 7.99867 16.0014C9.94058 16.0044 11.8165 15.2968 13.2727 14.0121L13.264 14.0194C14.1243 13.2715 14.8139 12.3474 15.2862 11.3099C15.7584 10.2723 16.0023 9.1454 16.0013 8.00541V8.00075L16 8.00008ZM13.0253 13.2034C12.629 12.8829 12.2029 12.6011 11.7527 12.3621L11.7093 12.3407C12.118 11.1627 12.364 9.80475 12.3873 8.39208V8.38141H15.228C15.1322 10.209 14.3456 11.9319 13.0273 13.2014L13.0253 13.2034ZM8.38134 12.2001C9.23667 12.2461 10.036 12.4341 10.7733 12.7401L10.7253 12.7227C10.1347 14.0694 9.30334 14.9947 8.38134 15.1981V12.2001ZM8.38134 11.4374V8.38141H11.6267C11.6009 9.64692 11.3815 10.901 10.976 12.1001L11.002 12.0127C10.1743 11.6726 9.29399 11.4781 8.4 11.4381L8.382 11.4374H8.38134ZM8.38134 7.61875V4.56275C9.29945 4.52085 10.2033 4.31986 11.0527 3.96875L11 3.98808C11.37 5.06741 11.5973 6.31141 11.6267 7.60475V7.61875H8.38134ZM8.38134 3.80008V0.803414C9.30334 1.00675 10.1347 1.92808 10.7253 3.27875C10.036 3.56541 9.23667 3.75275 8.40067 3.79941L8.38134 3.80008ZM10.284 1.13341C11.0696 1.39544 11.8043 1.79052 12.456 2.30141L12.4407 2.28941C12.1453 2.52141 11.814 2.74008 11.4647 2.93008L11.4273 2.94875C11.1451 2.28257 10.7569 1.6664 10.278 1.12408L10.284 1.13141V1.13341ZM7.61734 0.805414V3.80008C6.795 3.75813 5.98594 3.57548 5.22534 3.26008L5.27334 3.27741C5.86667 1.93075 6.69667 1.00608 7.61867 0.802747L7.61734 0.805414ZM4.572 2.94675C4.21062 2.75232 3.86629 2.52774 3.54267 2.27541L3.55867 2.28741C4.19142 1.79152 4.90315 1.40568 5.664 1.14608L5.71467 1.13075C5.24828 1.65837 4.86825 2.25642 4.58867 2.90275L4.572 2.94608V2.94675ZM7.61867 4.56208V7.61808H4.37334C4.40267 6.31075 4.63 5.06675 5.026 3.90008L5 3.98741C5.82738 4.32706 6.7072 4.52125 7.60067 4.56141L7.61867 4.56208ZM7.61867 8.38075V11.4367C6.70056 11.4787 5.79669 11.6796 4.94734 12.0307L5 12.0114C4.63 10.9327 4.40267 9.68808 4.37334 8.39475V8.38075H7.61867ZM7.61867 12.1994V15.1961C6.69667 14.9927 5.86534 14.0714 5.27467 12.7207C5.964 12.4341 6.76334 12.2474 7.59934 12.2007L7.61867 12.2001V12.1994ZM5.71867 14.8661C4.9333 14.6048 4.19863 14.2107 3.54667 13.7007L3.56267 13.7127C3.858 13.4807 4.18934 13.2621 4.53867 13.0721L4.576 13.0534C4.85592 13.7199 5.24404 14.3355 5.72467 14.8754L5.71867 14.8687V14.8661ZM11.428 13.0527C11.8147 13.2627 12.146 13.4807 12.4573 13.7241L12.4413 13.7121C11.8086 14.208 11.0969 14.5938 10.336 14.8534L10.2853 14.8687C10.7517 14.3414 11.1317 13.7435 11.4113 13.0974L11.428 13.0541V13.0527ZM15.228 7.61875H12.3873C12.3669 6.23938 12.1289 4.87189 11.682 3.56675L11.7093 3.65875C12.1803 3.41079 12.6261 3.11787 13.0407 2.78408L13.0247 2.79608C14.3402 4.06077 15.1271 5.77731 15.2267 7.59941L15.2273 7.61808L15.228 7.61875ZM2.97467 2.79675C3.35867 3.10875 3.79 3.39475 4.24734 3.63808L4.29067 3.65941C3.882 4.83741 3.636 6.19541 3.61267 7.60808V7.61875H0.771336C0.867131 5.79115 1.65377 4.06822 2.972 2.79875L2.974 2.79675H2.97467ZM0.772003 8.38141H3.61267C3.63311 9.76078 3.87115 11.1283 4.318 12.4334L4.29067 12.3414C3.79 12.6074 3.35934 12.8934 2.95934 13.2161L2.97534 13.2041C1.65983 11.9394 0.872912 10.2229 0.773336 8.40075L0.772669 8.38208L0.772003 8.38141Z" />
</g>
<defs>
<clipPath id="clip0_109_1759">
<rect width="16" height="16" fill="white"/>
</clipPath>
</defs>
</svg>
