<svg id="icon--twitter" viewBox="0 0 20 20"  xmlns="http://www.w3.org/2000/svg">
<path d="M19.7024 4.11418C19.0066 4.42251 18.2591 4.63085 17.4733 4.72501C18.2841 4.23984 18.8907 3.47624 19.1799 2.57668C18.4181 3.02917 17.5844 3.34768 16.7149 3.51835C16.1302 2.89407 15.3558 2.48029 14.5119 2.34124C13.6679 2.2022 12.8017 2.34567 12.0476 2.74939C11.2936 3.15311 10.6939 3.79448 10.3417 4.57393C9.98954 5.35338 9.90454 6.22731 10.0999 7.06001C8.55633 6.98251 7.04628 6.5813 5.66778 5.88243C4.28928 5.18356 3.07313 4.20265 2.09826 3.00335C1.76493 3.57835 1.57326 4.24501 1.57326 4.95501C1.57289 5.59418 1.73029 6.22355 2.03149 6.78729C2.3327 7.35103 2.7684 7.83171 3.29993 8.18668C2.68349 8.16707 2.08066 8.0005 1.5416 7.70085V7.75085C1.54153 8.6473 1.85162 9.51616 2.41925 10.21C2.98687 10.9039 3.77707 11.38 4.65576 11.5575C4.08391 11.7123 3.48438 11.7351 2.90243 11.6242C3.15034 12.3955 3.63326 13.07 4.28357 13.5533C4.93388 14.0365 5.71903 14.3043 6.5291 14.3192C5.15396 15.3987 3.45567 15.9843 1.70743 15.9817C1.39775 15.9818 1.08833 15.9637 0.780762 15.9275C2.55533 17.0685 4.62105 17.674 6.73076 17.6717C13.8724 17.6717 17.7766 11.7567 17.7766 6.62668C17.7766 6.46001 17.7724 6.29168 17.7649 6.12501C18.5243 5.57583 19.1799 4.89576 19.7008 4.11668L19.7024 4.11418Z"/>
</svg>
