<svg id="icon--skype" viewBox="0 0 20 20"  xmlns="http://www.w3.org/2000/svg">
<path d="M19.2949 11.6706C19.3974 11.1067 19.4524 10.5301 19.4524 9.95363C19.4524 8.67527 19.2024 7.43452 18.7098 6.26896C18.2348 5.141 17.5522 4.12834 16.6846 3.25855C15.8242 2.39384 14.8043 1.70511 13.6817 1.23073C12.5166 0.736935 11.2814 0.486276 10.0063 0.486276C9.40618 0.486276 8.8036 0.543928 8.21853 0.656724C7.40897 0.226653 6.50691 0.00121868 5.59071 0C4.09802 0 2.69285 0.584033 1.63772 1.64181C1.11706 2.16109 0.704246 2.77869 0.423144 3.4589C0.142041 4.13911 -0.00177265 4.86844 1.64903e-05 5.60471C1.64903e-05 6.55721 0.245047 7.49467 0.702603 8.32184C0.610092 8.85825 0.560085 9.40719 0.560085 9.95363C0.560085 11.232 0.810116 12.4727 1.30268 13.6383C1.77774 14.7663 2.45782 15.7789 3.32543 16.6487C4.19303 17.5185 5.20316 18.2003 6.3283 18.6765C7.49344 19.1703 8.72859 19.421 10.0037 19.421C10.5588 19.421 11.1139 19.3708 11.659 19.2731C12.4966 19.7468 13.4417 20 14.4093 20C15.902 20 17.3071 19.4185 18.3623 18.3582C19.4199 17.3004 20 15.8917 20 14.3953C20.0025 13.4428 19.7575 12.5028 19.2949 11.6706ZM10.0438 15.7539C6.68834 15.7539 5.18816 14.0995 5.18816 12.8613C5.18816 12.2246 5.65571 11.7809 6.30079 11.7809C7.73597 11.7809 7.36592 13.8489 10.0438 13.8489C11.4164 13.8489 12.174 13.1019 12.174 12.3374C12.174 11.8787 11.949 11.3673 11.0439 11.1443L8.05851 10.3973C5.65571 9.79321 5.21816 8.48979 5.21816 7.26657C5.21816 4.7249 7.60595 3.7699 9.84873 3.7699C11.914 3.7699 14.3493 4.9154 14.3493 6.4394C14.3493 7.09362 13.7842 7.47211 13.1391 7.47211C11.914 7.47211 12.139 5.77265 9.67121 5.77265C8.44606 5.77265 7.76847 6.32911 7.76847 7.1237C7.76847 7.91829 8.73609 8.17145 9.5762 8.36446L11.7865 8.85575C14.2068 9.39717 14.8193 10.8134 14.8193 12.1469C14.8193 14.2098 13.2366 15.7539 10.0438 15.7539Z"/>
<defs>
<clipPath id="clip0_330_2876">
<rect width="20" height="20" fill="white"/>
</clipPath>
</defs>
</svg>
