<svg id="icon--no-icon" viewBox="0 0 24 24" fill="none" xmlns="http://www.w3.org/2000/svg">
<path d="M24 12C24 18.6274 18.6274 24 12 24C5.37258 24 0 18.6274 0 12C0 5.37258 5.37258 0 12 0C18.6274 0 24 5.37258 24 12Z" fill="#D0D1D8"/>
<path d="M14.4798 9.19776C14.4798 8.68163 14.2736 8.24404 13.8611 7.88499C13.4604 7.52595 12.9478 7.34642 12.3232 7.34642C11.3098 7.34642 10.4848 7.76157 9.84848 8.59186L9 7.69986C9.32997 7.19495 9.79545 6.78541 10.3965 6.47125C11.0093 6.15708 11.681 6 12.4116 6C13.5194 6 14.3914 6.2805 15.0278 6.84151C15.6759 7.40252 16 8.09257 16 8.91164C16 9.42777 15.9057 9.89341 15.7172 10.3086C15.5286 10.7237 15.2929 11.0491 15.0101 11.2847C14.7273 11.5203 14.4268 11.7616 14.1086 12.0084C13.8022 12.2553 13.5194 12.4797 13.2601 12.6816C13.0126 12.8836 12.8182 13.1417 12.6768 13.4558C12.5471 13.77 12.5236 14.129 12.6061 14.533L11.3333 14.5498C11.2155 13.9663 11.2391 13.467 11.404 13.0519C11.5808 12.6367 11.8342 12.3001 12.1641 12.0421C12.4941 11.784 12.83 11.5372 13.1717 11.3015C13.5253 11.0659 13.8316 10.7742 14.0909 10.4264C14.3502 10.0673 14.4798 9.65778 14.4798 9.19776ZM10.9798 17.0407C10.9798 16.805 11.0741 16.5975 11.2626 16.418C11.4512 16.2384 11.6987 16.1487 12.0051 16.1487C12.2643 16.1487 12.4823 16.244 12.6591 16.4348C12.8476 16.6143 12.9419 16.8163 12.9419 17.0407C12.9419 17.2987 12.8535 17.5231 12.6768 17.7139C12.5 17.9046 12.2761 18 12.0051 18C11.6987 18 11.4512 17.9046 11.2626 17.7139C11.0741 17.5231 10.9798 17.2987 10.9798 17.0407Z" fill="#9296A5"/>
</svg>
