<svg id="icon--swap" viewBox="0 0 24 24" xmlns="http://www.w3.org/2000/svg">
<path d="M2.67073 4.60193L2.2422 2.74204C2.20759 2.59272 2.14472 2.45186 2.05719 2.32753C1.96965 2.20319 1.85916 2.0978 1.73202 2.01739C1.60488 1.93697 1.46359 1.88309 1.3162 1.85883C1.16882 1.83457 1.01823 1.84041 0.873042 1.876C0.727851 1.9116 0.590898 1.97625 0.470004 2.06628C0.349109 2.15631 0.24664 2.26995 0.168447 2.40071C0.0902544 2.53147 0.037869 2.67678 0.0142818 2.82836C-0.00930538 2.97994 -0.00363234 3.13482 0.0309771 3.28414L1.1623 8.09252C1.23345 8.39158 1.41653 8.64966 1.67173 8.8106C1.92693 8.97155 2.2336 9.02235 2.52503 8.95195L7.2046 7.80164C8.67874 7.43142 8.14308 5.15725 6.66893 5.52746L4.41914 6.08719C5.61269 4.53756 7.22777 3.38845 9.05861 2.78627C10.8894 2.18409 12.8532 2.1561 14.6995 2.70588C16.5459 3.25565 18.1913 4.3583 19.4261 5.87332C20.661 7.38835 21.4293 9.24715 21.6333 11.2129C21.7575 12.8084 24.1059 12.5483 23.8916 10.9617C23.236 4.64159 18.0079 -0.065422 11.3442 0.000687789C7.436 0.397346 4.59484 2.12502 2.67073 4.60193ZM16.778 16.1667C15.2438 16.4929 15.7967 18.8684 17.3051 18.4409L19.5549 17.8812C18.3641 19.4364 16.7492 20.5908 14.9169 21.1968C13.0846 21.8027 11.1181 21.8327 9.26915 21.2827C7.42019 20.7328 5.77281 19.628 4.5378 18.1097C3.3028 16.5914 2.53633 14.7287 2.33648 12.7599C2.3289 12.6009 2.2898 12.4452 2.22159 12.3023C2.15338 12.1594 2.05749 12.0324 1.93981 11.929C1.82213 11.8256 1.68515 11.7481 1.53728 11.7011C1.3894 11.6542 1.23375 11.6388 1.07989 11.6559C0.926023 11.6731 0.77719 11.7224 0.642528 11.8008C0.507867 11.8793 0.390217 11.9852 0.296805 12.1121C0.203392 12.239 0.136188 12.3842 0.0993181 12.5388C0.0624483 12.6934 0.0566914 12.8541 0.0824009 13.0111C0.423451 16.2516 1.99976 19.2208 4.46582 21.268C6.93188 23.3152 10.0865 24.2733 13.2383 23.9324C14.809 23.7586 16.3305 23.2654 17.7143 22.4816C19.0981 21.6977 20.3166 20.6388 21.299 19.3664L21.7361 21.2307C22.0146 22.8614 24.4101 22.2709 23.9388 20.6886L22.8203 15.8758C22.6917 15.3205 22.1946 14.9415 21.5433 14.9944L16.778 16.1667Z"/>
</svg>
